#!OML:ASF F:\twosubjects\two\Thursday\Session 1\justin.ASF
:FULLY-SPECIFIED
:DEGREES
273
root 13.4459 18.1494 17.7554 0.353557 15.0097 -1.46854
lowerback 4.69143 -1.97773 -1.81929
upperback 1.05705 -2.65957 3.50531
thorax -1.28967 -1.32412 4.79033
lowerneck -11.5215 -11.9135 -15.3817
upperneck 22.7244 -16.8449 12.874
head 11.7991 -7.70589 4.68151
rclavicle 1.84373e-014 -3.97569e-014
rhumerus -41.2277 -39.5963 -55.0302
rradius 16.0113
rwrist 18.791
rhand -11.7404 11.3914
rfingers 7.12502
rthumb 14.3072 -18.0956
lclavicle 1.84373e-014 -3.97569e-014
lhumerus -32.0248 19.3473 72.2462
lradius 35.2123
lwrist -13.7283
lhand -3.05408 37.2384
lfingers 7.12502
lthumb 22.6621 65.9278
rfemur -22.2668 -0.399927 25.8829
rtibia 39.7943
rfoot -17.5637 -13.867
rtoes -10.8328
lfemur -5.91415 -1.24407 -10.8786
ltibia 59.0844
lfoot 17.8983 -20.3519
ltoes -7.8092
274
root 13.4714 18.1905 17.9316 0.532937 14.8888 -0.853965
lowerback 4.68504 -1.94634 -2.42704
upperback 0.796427 -2.65019 3.22164
thorax -1.5413 -1.3088 4.84534
lowerneck -15.2062 -12.3445 -13.6839
upperneck 26.5198 -17.0083 9.91133
head 13.5864 -7.71997 3.10794
rclavicle 6.4605e-015 -1.59028e-015
rhumerus -40.2069 -33.0178 -60.2624
rradius 19.529
rwrist 11.8914
rhand -11.0112 9.86006
rfingers 7.12502
rthumb 15.0097 -19.5759
lclavicle 6.4605e-015 -1.59028e-015
lhumerus -32.5747 20.207 71.4507
lradius 33.6858
lwrist -14.86
lhand -2.08593 37.5665
lfingers 7.12502
lthumb 23.591 66.1394
rfemur -21.3358 -0.261922 25.2189
rtibia 39.1192
rfoot -17.9581 -13.5898
rtoes -9.55983
lfemur -7.08979 -0.900123 -11.5409
ltibia 60.4791
lfoot 15.5319 -18.1679
ltoes -7.33606
275
root 13.4865 18.2334 18.1112 0.500407 14.6133 -0.777178
lowerback 4.74071 -1.84569 -2.64096
upperback 0.579358 -2.52684 3.15721
thorax -1.80245 -1.23674 4.9015
lowerneck -11.1784 -11.0275 -14.9141
upperneck 23.4121 -15.899 13.224
head 11.8233 -7.21697 4.9606
rclavicle 7.31528e-014 -1.27222e-014
rhumerus -40.1389 -30.5162 -62.1433
rradius 21.0103
rwrist 9.71242
rhand -10.5862 8.88539
rfingers 7.12502
rthumb 15.4191 -20.5195
lclavicle 7.31528e-014 -1.27222e-014
lhumerus -33.4011 20.7252 70.9165
lradius 32.8742
lwrist -15.4907
lhand -0.257193 39.0226
lfingers 7.12502
lthumb 25.344 67.3585
rfemur -20.3535 0.236483 25.1716
rtibia 38.5115
rfoot -18.5137 -13.5072
rtoes -7.47622
lfemur -8.21346 -0.510798 -11.5362
ltibia 61.6205
lfoot 13.6744 -16.2755
ltoes -4.67283
276
root 13.5069 18.2339 18.2937 0.221295 14.411 -0.96037
lowerback 4.1848 -1.80391 -2.62484
upperback 0.940359 -2.46708 3.18416
thorax -1.12489 -1.2283 4.88447
lowerneck -12.8416 -10.9813 -14.2627
upperneck 24.9567 -15.6764 12.2325
head 12.5646 -7.063 4.47635
rclavicle -3.17559e-014 -5.56597e-015
rhumerus -38.8958 -29.5391 -63.6542
rradius 21.076
rwrist 9.27393
rhand -10.412 8.41464
rfingers 7.12502
rthumb 15.5869 -20.9773
lclavicle -3.17559e-014 -5.56597e-015
lhumerus -33.9516 20.9302 70.8343
lradius 32.788
lwrist -15.5936
lhand -0.12253 39.5065
lfingers 7.12502
lthumb 25.473 67.824
rfemur -18.8654 0.0212096 25.6463
rtibia 37.7968
rfoot -18.328 -14.2044
rtoes -11.668
lfemur -9.21531 -0.219519 -11.2202
ltibia 62.7691
lfoot 10.8831 -16.188
ltoes -9.82466
277
root 13.5297 18.2849 18.4845 -0.107249 14.2835 -1.17403
lowerback 3.27957 -1.6771 -2.2869
upperback 1.62037 -2.28506 3.07301
thorax 0.0439576 -1.17074 4.52028
lowerneck -14.3136 -10.977 -13.7981
upperneck 25.7774 -15.6236 11.9641
head 13.1195 -6.94482 4.26013
rclavicle 1.14798e-014 -6.36111e-015
rhumerus -37.638 -30.1623 -64.4621
rradius 20.5392
rwrist 10.1726
rhand -10.0998 10.1346
rfingers 7.12502
rthumb 15.8875 -19.2337
lclavicle 1.14798e-014 -6.36111e-015
lhumerus -33.698 21.1924 70.8155
lradius 32.0425
lwrist -16.0433
lhand -1.15186 38.3302
lfingers 7.12502
lthumb 24.4866 66.7849
rfemur -17.4676 0.0958332 25.92
rtibia 37.1455
rfoot -18.8412 -13.9172
rtoes -9.47058
lfemur -9.97068 -0.00784792 -10.8509
ltibia 63.5551
lfoot 8.41743 -15.6772
ltoes -14.1479
278
root 13.5532 18.2897 18.6345 -0.252524 14.1409 -1.61298
lowerback 4.03467 -1.4728 -1.70946
upperback 0.981615 -1.98522 3.15923
thorax -1.08119 -0.989268 4.31191
lowerneck -14.1877 -10.7677 -13.7511
upperneck 26.7489 -15.318 11.4786
head 13.3908 -6.85328 4.15172
rclavicle -4.82053e-015 -3.18055e-015
rhumerus -37.743 -27.2561 -65.9884
rradius 21.7162
rwrist 7.8973
rhand -9.66791 7.26443
rfingers 7.12502
rthumb 16.3034 -22.0702
lclavicle -4.82053e-015 -3.18055e-015
lhumerus -35.1047 21.3479 70.2966
lradius 31.1325
lwrist -16.7004
lhand -1.11617 37.9057
lfingers 7.12502
lthumb 24.5209 66.3558
rfemur -16.4169 0.18325 26.4977
rtibia 36.4794
rfoot -18.9337 -14.1193
rtoes -10.1331
lfemur -11.1496 0.491569 -10.1973
ltibia 64.3405
lfoot 6.36009 -14.8577
ltoes -16.0129
279
root 13.5764 18.2977 18.7875 -0.267542 13.9868 -1.92684
lowerback 4.19306 -1.35855 -1.39921
upperback 0.638972 -1.81228 3.21203
thorax -1.54554 -0.89138 4.19525
lowerneck -12.5179 -10.1899 -14.2349
upperneck 26.0963 -14.754 12.3976
head 12.8172 -6.6342 4.76478
rclavicle -3.4837e-014 2.38542e-015
rhumerus -37.2151 -26.2232 -66.6947
rradius 21.1036
rwrist 7.45633
rhand -9.33655 7.59795
rfingers 7.12502
rthumb 16.6225 -21.7102
lclavicle -3.4837e-014 2.38542e-015
lhumerus -36.0041 21.7768 69.7553
lradius 30.4119
lwrist -17.3675
lhand -0.148173 38.3669
lfingers 7.12502
lthumb 25.4484 66.688
rfemur -15.5763 0.261776 26.9595
rtibia 35.9898
rfoot -19.1034 -14.4305
rtoes -11.4537
lfemur -12.362 1.03019 -9.8161
ltibia 64.8962
lfoot 3.62485 -14.5029
ltoes -21.3824
